<?xml version="1.0" encoding="utf-8"?>
<!-- Generator: Adobe Illustrator 22.1.0, SVG Export Plug-In . SVG Version: 6.00 Build 0)  -->
<svg version="1.1" id="Layer_1" xmlns="http://www.w3.org/2000/svg" xmlns:xlink="http://www.w3.org/1999/xlink" x="0px" y="0px"
	 viewBox="0 0 1096 780" style="enable-background:new 0 0 1096 780;" xml:space="preserve">
<style type="text/css">
	.st0{clip-path:url(#SVGID_2_);fill:#D4E8F7;}
	.st1{fill:#ACACAC;}
	.st2{fill:#D4E8F7;}
	.st3{fill:#FFFFFF;}
	.st4{fill:#A74921;}
	.st5{fill:#8D3D17;}
	.st6{fill:#B95227;}
	.st7{fill:#D32027;}
	.st8{fill:#231F20;}
	.st9{fill:#FBD802;}
	.st10{fill:#333333;}
	.st11{fill:#006EB7;}
	.st12{fill:#A3CB45;}
	.st13{fill:#374A9F;}
	.st14{fill:#6CAFB6;}
	.st15{fill:#9A9A9B;}
	.st16{fill:#3F3F40;}
	.st17{fill:#EF4737;}
	.st18{fill:#F26951;}
</style>
<g>
	<g>
		<defs>
			<rect id="SVGID_1_" x="0.1" width="1095.9" height="780"/>
		</defs>
		<clipPath id="SVGID_2_">
			<use xlink:href="#SVGID_1_"  style="overflow:visible;"/>
		</clipPath>
		<polygon class="st0" points="1096,780 0,780 0,0 1096,0 1096,780 		"/>
	</g>
	<path class="st1" d="M510.5,586.6c-43.9,0-57.7-40.8-57.7-40.8c-15.9-42.3-79.2-38.4-79.2-38.4v-92.8h136.9h1.1h136.9v92.8
		c0,0-63.3-3.9-79.2,38.4c0,0-13.7,40.8-57.7,40.8"/>
	<path class="st2" d="M511.6,449.4c-29.1-1.4-64.7,35.4-64.7,35.4c-59.1,62.8-145,62.8-145,62.8c-132.7,7.1-178.4-59.1-178.4-59.1
		c-90.7-121.2,15.9-223.1,15.9-223.1C266,138.8,511.6,155.7,511.6,155.7c0,0,245.6-16.9,372.2,109.7c0,0,101.7,103.4,15.9,223.1
		c0,0-45.7,66.2-178.4,59.1c0,0-86,0-145-62.8C576.3,484.8,540.7,448,511.6,449.4L511.6,449.4z"/>
	<path class="st2" d="M160,341.1c0,0,58.1-100.5,168.8-86.3"/>
	<path class="st3" d="M160,341.1c0,0,1-3,3.6-8c1.3-2.5,2.8-5.5,4.9-8.8c2-3.3,4.4-7,7.2-10.9c2.8-3.9,6.1-8,9.7-12.1
		c3.7-4.1,7.7-8.3,12.2-12.4c4.5-4.1,9.3-8.1,14.5-11.8c5.2-3.8,10.7-7.2,16.4-10.4c2.8-1.6,5.8-2.9,8.7-4.4c3-1.3,5.9-2.6,8.9-3.8
		c6-2.3,12.1-4.1,18-5.5c5.9-1.4,11.8-2.3,17.3-2.9c2.8-0.2,5.5-0.4,8.1-0.5c2.6,0,5.1,0,7.6,0c4.8,0.2,9.2,0.6,13.1,1.1
		c3.9,0.6,7.2,1.1,9.9,1.8c5.4,1.3,8.5,2.2,8.5,2.2s-3.2,0.3-8.7,0.6c-2.7,0.1-6.1,0.6-9.8,0.8c-1.9,0.1-3.9,0.5-6,0.7
		c-2.1,0.3-4.3,0.5-6.5,0.9c-2.3,0.4-4.6,0.8-7,1.2c-2.4,0.5-4.9,1.1-7.4,1.6c-5.1,1.2-10.3,2.7-15.7,4.4c-2.7,0.8-5.4,1.9-8.1,2.9
		c-2.7,1-5.4,2.2-8.1,3.3c-2.7,1.2-5.4,2.5-8.1,3.7c-2.6,1.4-5.4,2.7-8,4.2c-2.6,1.5-5.3,2.9-7.8,4.5c-2.6,1.5-5.1,3.1-7.6,4.8
		c-2.5,1.6-4.9,3.4-7.3,5c-2.3,1.7-4.7,3.4-7,5.1c-9,6.9-17.1,14-23.9,20.3c-6.8,6.3-12.2,11.9-15.9,15.9c-1.9,2-3.3,3.6-4.3,4.7
		C160.5,340.5,160,341.1,160,341.1L160,341.1z"/>
	<path class="st2" d="M150.2,377.6c0,0,64.9-100.5,188.4-86.3"/>
	<path class="st3" d="M150.2,377.6c0,0,1.3-3.2,4.4-8.4c3.1-5.2,7.9-12.5,14.6-20.4c3.4-4,7.1-8.2,11.4-12.4
		c4.2-4.2,9-8.4,14.1-12.5c2.6-2,5.2-4.1,8-6c1.4-1,2.8-1.9,4.2-2.9c1.4-0.9,2.9-1.8,4.4-2.8c5.8-3.7,12.1-7,18.4-10.1
		c6.4-2.9,12.9-5.7,19.5-7.8c3.3-1.1,6.6-2.1,9.9-2.9c1.6-0.4,3.3-0.8,4.9-1.3c1.6-0.4,3.3-0.7,4.9-1c3.2-0.6,6.4-1.3,9.6-1.6
		c3.1-0.4,6.2-0.9,9.2-1c3-0.1,5.9-0.5,8.7-0.4c2.8,0,5.5,0,8.2,0.1c5.2,0.2,10,0.5,14.2,1.1c4.2,0.6,7.8,1.1,10.8,1.8
		c5.9,1.3,9.2,2.2,9.2,2.2s-3.5,0.3-9.4,0.6c-3,0.1-6.6,0.6-10.7,0.8c-2,0.1-4.2,0.4-6.5,0.7c-2.3,0.3-4.7,0.5-7.2,0.8
		c-5,0.8-10.3,1.6-15.9,2.8c-2.8,0.5-5.6,1.2-8.5,1.9c-1.4,0.3-2.9,0.7-4.4,1.1c-1.5,0.4-2.9,0.8-4.4,1.3c-3,0.8-6,1.7-9,2.7
		c-3,0.9-6,2.1-9.1,3.2c-6.1,2.2-12.1,4.8-18,7.6c-5.9,2.8-11.8,5.8-17.4,9.1c-5.7,3.2-11,6.7-16.2,10c-5.1,3.5-10,7-14.6,10.5
		c-4.6,3.5-8.8,6.9-12.6,10.1c-3.8,3.3-7.3,6.3-10.3,9.1c-3,2.8-5.7,5.3-7.8,7.4c-2.1,2.1-3.8,3.7-4.9,4.9
		C150.8,377,150.2,377.6,150.2,377.6L150.2,377.6z"/>
	<path class="st4" d="M705,509.6c0,0-6.5-38.1-4.2-45H715c0,0,2.1,6,0.9,18.2c0,0-1.6,16.8,1.4,21.4
		C717.4,504.2,710.6,513.4,705,509.6L705,509.6z"/>
	<path class="st5" d="M715.2,464.8c0,1-3.3,1.7-7.4,1.6c-4-0.1-7.3-1-7.3-2c0-1,3.3-1.7,7.4-1.6C712,462.9,715.3,463.8,715.2,464.8
		L715.2,464.8z"/>
	<path class="st6" d="M705.2,538.3c0,0-18.2-18.8-20.8-20.6c0,0-11-10-9.8-19.6l11.1-2.3c0,0,4.6,9.7,5.5,14.5c0,0,2.5,8.4,7.1,6.3
		c0,0,4.6-2.3-0.9-9.1c0,0-12-12.9-10.4-20.8l10.4-1c0,0,6,10.4,6.1,17c0,0,0.4,8.1,5.9,5.9c0,0,5.1-2-2.7-10.9
		c0,0-11-14.2-11.7-26.2l14.1-1.8c0,0,3.8,7.5,4.7,13.5c0,0,1.4,18.4,7.7,19.4c0,0,5.6,1.1,0-13c0,0-4.4-11.5-1.8-16.3l11.9,0.8
		c0,0,0.8,10.1-0.6,14.5c0,0-3.6,12,2.9,10.8c0,0,5.5,0.6,4-15.1c0,0-1.8-16,1.2-15.8l13.9,4.1c0,0,1.4,2.2-2.6,8
		c0,0-11.3,18.6-6.8,20.3c0,0,4,3,5.5-13c0,0,1.1-7.8,6.1-9c0,0,8.9,0.8,8.2,5.1c0,0-5.3,17.2-14.6,22.8c0,0-4.9,4.1,1.9,5
		c0,0,11.6,0.9,11.5-16.6l13.1,5.8c0,0-2.8,10.2-13.3,14.5c0,0-18.5,11.4-15.1,22.9H705.2L705.2,538.3z"/>
	<path class="st4" d="M720.8,538.3c0,0-3.9-19-1.7-22.5l18.4,4.9c0,0-2.3,13.5-4.7,17.6H720.8L720.8,538.3z"/>
	<path class="st5" d="M685.7,495.5c0.2,0.8-2.2,2-5.3,2.7c-3.1,0.7-5.8,0.7-5.9-0.1c-0.2-0.8,2.2-2,5.3-2.7
		C682.9,494.6,685.6,494.7,685.7,495.5L685.7,495.5z"/>
	<path class="st5" d="M697.5,485.5c0.1,0.7-2.2,1.6-5.1,2c-2.9,0.4-5.4,0.1-5.5-0.6c-0.1-0.7,2.2-1.6,5.1-2
		C694.9,484.5,697.4,484.8,697.5,485.5L697.5,485.5z"/>
	<path class="st5" d="M709.8,469.3c0.1,1.1-3.2,2.4-7.4,2.9c-4.2,0.5-7.8,0.1-7.9-0.9c-0.1-1.1,3.2-2.4,7.4-2.9
		C706.1,467.8,709.7,468.2,709.8,469.3L709.8,469.3z"/>
	<path class="st5" d="M731.7,473.7c-0.1,0.8-2.8,1.3-6.1,1.1c-3.3-0.2-5.9-1.1-5.9-1.9c0.1-0.8,2.8-1.3,6.1-1.1
		C729.1,472,731.8,472.9,731.7,473.7L731.7,473.7z"/>
	<path class="st5" d="M753.1,472.2c-0.3,1-3.7,0.9-7.7-0.2c-4-1.1-7-2.8-6.7-3.8c0.3-1,3.7-0.9,7.7,0.2
		C750.4,469.5,753.4,471.2,753.1,472.2L753.1,472.2z"/>
	<path class="st5" d="M737.8,520.6c-0.4,1.3-4.8,1.2-10-0.2c-5.2-1.4-9.1-3.6-8.8-4.9c0.4-1.3,4.8-1.2,10,0.2
		C734.3,517.1,738.2,519.3,737.8,520.6L737.8,520.6z"/>
	<path class="st5" d="M763.8,482.7c-0.2,0.7-2.7,0.4-5.5-0.5c-2.8-1-4.8-2.4-4.6-3.1c0.2-0.7,2.7-0.5,5.5,0.5
		C762,480.6,764,482,763.8,482.7L763.8,482.7z"/>
	<path class="st5" d="M775.6,500.7c-0.4,0.9-3.8,0.4-7.5-1.2c-3.8-1.6-6.5-3.7-6.1-4.6c0.4-0.9,3.8-0.4,7.6,1.2
		C773.3,497.7,776,499.8,775.6,500.7L775.6,500.7z"/>
	<path class="st7" d="M619.4,279.5c-1.7,0-3.6,3.1-3.6,3.1c-8.3,13.4-23.1,14.4-23.1,14.4c-17,0.1-12.5-12.1-12.5-12.1
		c8.4,13.9,18.6,0,18.6,0c-11.2-1.7-16.9-9-16.9-9c-8.3-12.1-0.4-17.7-0.4-17.7c6.2-4.2,8.2,2.8,8.2,2.8c-8.8-2.2-5.8,6.7-5.8,6.7
		c2.5,6.5,10.2,6.1,10.2,6.1c15.1-1.6,5.7-16.2,5.7-16.2c-5.4-8.3-5.1-18.4-5.1-18.4c1.7-21.4,24.9-20.1,24.9-20.1
		s23.2-1.3,24.9,20.1c0,0,0.3,10.2-5.1,18.4c0,0-9.4,14.6,5.7,16.2c0,0,7.6,0.3,10.2-6.1c0,0,3-8.9-5.8-6.7c0,0,1.9-7,8.2-2.8
		c0,0,7.8,5.6-0.4,17.7c0,0-5.7,7.3-16.9,9c0,0,10.2,13.9,18.6,0c0,0,4.4,12.2-12.5,12.1c0,0-14.9-1-23.1-14.4
		C623.1,282.6,621.2,279.5,619.4,279.5L619.4,279.5z"/>
	<path class="st8" d="M627.7,244c0,2.4-0.9,4.3-2.1,4.3c-1.1,0-2.1-1.9-2.1-4.3c0-2.4,0.9-4.3,2.1-4.3
		C626.7,239.7,627.7,241.6,627.7,244L627.7,244z"/>
	<path class="st8" d="M615.2,243.6c0,2.4-0.9,4.3-2.1,4.3c-1.1,0-2.1-1.9-2.1-4.3c0-2.4,0.9-4.3,2.1-4.3
		C614.3,239.3,615.2,241.2,615.2,243.6L615.2,243.6z"/>
	<path class="st8" d="M621.5,256.3c0,2.4-0.9,4.3-2.1,4.3c-1.1,0-2.1-1.9-2.1-4.3c0-2.4,0.9-4.3,2.1-4.3
		C620.6,252,621.5,253.9,621.5,256.3L621.5,256.3z"/>
	<path class="st9" d="M480.8,236.4c1.1,4.2,7.7,29.6,7.7,29.6c-10.4-0.5-13.7-14.6-13.7-14.6c-16.7,45.8-50.3-0.4-50.3-0.4
		s6.9-56.7,43.7-24.9c0,0-4-13.9,4.9-19.4C473.1,206.8,479.2,232.3,480.8,236.4L480.8,236.4z"/>
	<path class="st3" d="M447.9,245c-0.6-2.4-3.1-3.8-5.5-3.2c-2.4,0.6-3.9,3.1-3.2,5.5c0.6,2.4,3.1,3.9,5.5,3.2
		C447.1,249.8,448.5,247.4,447.9,245L447.9,245z"/>
	<path class="st10" d="M445.1,245.7c-0.2-0.9-1.1-1.4-1.9-1.1c-0.9,0.2-1.4,1.1-1.1,1.9c0.2,0.9,1.1,1.4,1.9,1.1
		C444.8,247.4,445.3,246.6,445.1,245.7L445.1,245.7z"/>
	<path class="st11" d="M788.3,300.8c0.5,3.3,3.5,23.3,3.5,23.3c7.2-3.5,5.3-14.5,5.3-14.5c25.7,27.3,35.5-15.6,35.5-15.6
		s-22.1-38-38.5-4.3c0,0-1.4-11.1-9.3-12.2C784.7,277.5,788.1,297.4,788.3,300.8L788.3,300.8z"/>
	<path class="st3" d="M814.1,296.8c-0.3-1.9,1-3.7,2.9-3.9c1.9-0.3,3.7,1,3.9,2.9c0.3,1.9-1,3.7-2.9,3.9
		C816.2,300,814.4,298.7,814.1,296.8L814.1,296.8z"/>
	<path class="st10" d="M816.4,296.5c-0.1-0.7,0.4-1.3,1-1.4c0.7-0.1,1.3,0.4,1.4,1c0.1,0.7-0.4,1.3-1,1.4
		C817.1,297.6,816.5,297.2,816.4,296.5L816.4,296.5z"/>
	<path class="st12" d="M896.5,480.5c0,0-34.6-45.4,5.8-87.4c0,0,16.8-18.2,3.6-21.3c0,0-5.8-0.3-15.8,18.8c0,0-12.9,16.7-14.2-7.3
		c0,0,2.5-41.3,7-50.8c0,0,6.5-18.3-16.5-15.8c0,0-15.2,1.4-9.1,16.5c0.1,0.2,0.1,0.3,0.2,0.5c6.6,15.5,8.8,17.6,10.8,26.7
		c0,0,3.9,30.8-1.1,40.5c0,0-3.4,10.5,1.7,22.6c0,0,7.3,22.7-11.9,18.6c0,0-24.4-7.7-11.9-48.8c0,0,13.8-28.9-7-31
		c0,0-12.7,0.2-8,17.1c0,0,12.5,24.7-8.7,25.6c0,0-12.4-0.2-18.8-4.8c0,0-16.8-17.2-25.9-1.1c0,0-8.7,16.9,21.3,17
		c0,0,14.9-2.2,24.8-4.8c0,0,19.3-8,14.5,21.8c0,0-2.7,12.5-25,11.3c0,0-8.3-2-6.6,8.8c0,0,0.7,12,21.9,1.3c0,0,24.5-17.5,34.6,9.3
		c0,0,11.4,23.9-22.6,20.8c0,0-41.5-6.3-46.2,28.9c0,0-1.5,12.4,12.5,7c0,0,9.2-2.2,13.4-16.1c0,0,3-8.8,13.2-8.7
		c0,0,21.2,2.2,18.6,22.4L896.5,480.5L896.5,480.5z"/>
	<path class="st13" d="M204.3,530.7c0,0,25.7-51,81.1-33c0,0,23.7,7.1,20.8-6.1c0,0-2.3-5.3-23.8-6c0,0-20.7-4.2,0.3-16
		c0,0,38.2-15.9,48.7-15.9c0,0,19.3-2.1,7-21.7c0,0-7.9-13-18.8-0.9c-0.1,0.1-0.2,0.3-0.3,0.4c-11.1,12.7-12,15.6-19.3,21.4
		c0,0-26,17-36.8,16.7c0,0-10.9,1.5-19.5,11.4c0,0-17.2,16.5-22-2.6c0,0-3.8-25.3,38.7-32c0,0,32.1-0.2,24.8-19.9
		c0,0-5.8-11.3-18.9,0.3c0,0-16.8,22-26.8,3.4c0,0-5.3-11.2-3.9-19c0,0,8.1-22.6-10.3-23.7c0,0-19-0.4-5.9,26.6
		c0,0,8.5,12.4,15.2,20.2c0,0,15.6,13.8-13.2,22.6c0,0-12.4,3-21.1-17.5c0,0-1.9-8.3-10.8-2.1c0,0-10.5,5.9,8.4,20.3
		c0,0,26.5,14.4,6.8,35.2c0,0-16.6,20.7-28.6-11.2c0,0-12.5-40-46.2-28.9c0,0-11.8,4.1-0.9,14.3c0,0,6,7.3,20.4,5
		c0,0,9.3-1.2,13.6,8.1c0,0,3.2,17.2-8.8,21.1L204.3,530.7L204.3,530.7z"/>
	<path class="st14" d="M719.3,354.3c-3.9,0-9.9-1.8-9.9-1.8c-5.1-1.7-10.7,1.6-10.7,1.6c-7.9,3.5-7-6.7-7-6.7
		c3.9-29.1,27.6-27.8,27.6-27.8h0c0,0,23.8-1.3,27.6,27.8c0,0,0.9,10.2-7,6.7c0,0-5.7-3.3-10.7-1.6
		C729.2,352.5,723.2,354.3,719.3,354.3"/>
	<path class="st14" d="M735.7,384.4c0.7-0.6,1.3-1.2,1.8-1.9c0.5-0.7,1-1.4,1.4-2.2c0.2-0.4,0.3-0.8,0.5-1.2
		c0.1-0.4,0.2-0.8,0.3-1.3l0-0.3l0-0.3c0-0.2,0-0.4,0-0.7c0-0.2,0-0.4,0-0.7c0-0.2-0.1-0.4-0.1-0.6c0-0.2-0.1-0.4-0.1-0.6
		c-0.1-0.2-0.1-0.4-0.2-0.6l-0.2-0.6l-0.3-0.6l-0.3-0.6c-0.1-0.2-0.2-0.4-0.4-0.5c-0.2-0.4-0.5-0.7-0.8-1.1c-0.3-0.4-0.5-0.7-0.8-1
		c-0.3-0.3-0.6-0.7-0.9-1l-0.9-0.9l-1-0.9l0,0l0,0c-0.4-0.4-0.8-0.8-1.1-1.2c-0.3-0.4-0.7-0.9-1-1.3c-0.6-0.9-1.1-2-1.3-3.1
		c-0.1-0.6-0.1-1.2-0.1-1.7c0.1-0.6,0.2-1.2,0.5-1.7c0.3-0.5,0.6-1,1-1.5c0.4-0.4,0.8-0.8,1.3-1.1c0.2-0.2,0.5-0.3,0.7-0.5l0.7-0.4
		c0.5-0.3,0.9-0.6,1.3-0.9c0.9-0.6,1.8-1.2,2.6-1.9c0.8-0.7,1.6-1.3,2.4-2.1c0.4-0.4,0.7-0.8,1-1.2c0.3-0.4,0.5-0.9,0.5-1.5l0.1,0
		c0.1,0.6-0.1,1.1-0.3,1.6c-0.2,0.5-0.5,1-0.9,1.4c-0.7,0.9-1.4,1.6-2.2,2.4c-0.8,0.7-1.7,1.4-2.5,2c-0.4,0.3-0.9,0.6-1.3,0.9
		l-0.7,0.4c-0.2,0.1-0.4,0.3-0.6,0.4c-0.4,0.3-0.8,0.6-1.1,1c-0.3,0.4-0.6,0.8-0.8,1.2c-0.2,0.4-0.3,0.9-0.4,1.4
		c-0.1,0.5-0.1,1,0,1.5c0.2,1,0.6,2,1.1,2.8c0.3,0.4,0.6,0.9,0.9,1.3c0.3,0.4,0.7,0.8,1,1.2l0,0l1,0.9l0.9,1c0.3,0.3,0.6,0.7,0.9,1
		c0.3,0.4,0.6,0.7,0.8,1.1c0.3,0.4,0.5,0.7,0.8,1.1c0.1,0.2,0.2,0.4,0.4,0.6l0.3,0.6l0.3,0.6l0.2,0.6c0.1,0.2,0.1,0.4,0.2,0.7
		c0,0.2,0.1,0.5,0.1,0.7c0,0.2,0.1,0.5,0.1,0.7c0,0.2,0,0.5,0,0.7c0,0.2,0,0.5,0,0.7l0,0.3l-0.1,0.3c-0.1,0.5-0.2,0.9-0.3,1.3
		c-0.2,0.4-0.3,0.8-0.5,1.2c-0.4,0.8-0.9,1.6-1.5,2.2C737.1,383.3,736.5,384,735.7,384.4L735.7,384.4L735.7,384.4z"/>
	<path class="st14" d="M696.6,385.9c0.7-0.6,1.3-1.2,1.8-1.9c0.5-0.7,1-1.4,1.4-2.2c0.2-0.4,0.3-0.8,0.5-1.2
		c0.1-0.4,0.2-0.8,0.3-1.3l0-0.3l0-0.3c0-0.2,0-0.4,0-0.7c0-0.2,0-0.4,0-0.6c0-0.2-0.1-0.4-0.1-0.6c0-0.2-0.1-0.4-0.1-0.6
		c-0.1-0.2-0.1-0.4-0.2-0.6l-0.2-0.6l-0.3-0.6l-0.3-0.6c-0.1-0.2-0.2-0.4-0.3-0.5c-0.3-0.4-0.5-0.7-0.8-1.1c-0.3-0.4-0.6-0.7-0.8-1
		c-0.3-0.3-0.6-0.7-0.9-1l-0.9-0.9l-1-0.9l0,0l0,0c-0.4-0.4-0.8-0.8-1.1-1.2c-0.3-0.4-0.7-0.9-1-1.3c-0.6-0.9-1.1-2-1.3-3.1
		c-0.1-0.6-0.1-1.2-0.1-1.7c0.1-0.6,0.2-1.2,0.5-1.7c0.3-0.5,0.6-1,1-1.5c0.4-0.4,0.8-0.8,1.3-1.1c0.2-0.2,0.5-0.3,0.7-0.5l0.7-0.4
		c0.5-0.3,0.9-0.6,1.3-0.9c0.9-0.6,1.7-1.2,2.6-1.9c0.8-0.7,1.6-1.3,2.3-2.1c0.4-0.4,0.7-0.8,1-1.2c0.3-0.4,0.5-0.9,0.5-1.5l0.1,0
		c0.1,0.6-0.1,1.1-0.3,1.6c-0.2,0.5-0.5,1-0.9,1.4c-0.7,0.9-1.4,1.6-2.2,2.4c-0.8,0.7-1.7,1.4-2.5,2c-0.4,0.3-0.9,0.6-1.3,0.9
		l-0.7,0.4c-0.2,0.1-0.4,0.3-0.6,0.4c-0.4,0.3-0.8,0.6-1.1,1c-0.3,0.4-0.6,0.8-0.8,1.2c-0.2,0.4-0.3,0.9-0.4,1.4
		c-0.1,0.5-0.1,1,0,1.5c0.2,1,0.6,1.9,1.1,2.8c0.3,0.4,0.6,0.9,0.9,1.3c0.3,0.4,0.7,0.8,1,1.2l0,0l1,0.9l0.9,1
		c0.3,0.3,0.6,0.7,0.9,1c0.3,0.4,0.6,0.7,0.8,1.1c0.3,0.4,0.5,0.7,0.8,1.1c0.1,0.2,0.2,0.4,0.4,0.6l0.3,0.6l0.3,0.6l0.2,0.6
		c0.1,0.2,0.1,0.4,0.2,0.7c0,0.2,0.1,0.5,0.1,0.7c0,0.2,0.1,0.5,0.1,0.7c0,0.2,0,0.5,0,0.7c0,0.2,0,0.5,0,0.7l0,0.3l-0.1,0.3
		c-0.1,0.5-0.2,0.9-0.3,1.3c-0.2,0.4-0.3,0.8-0.5,1.2c-0.4,0.8-0.9,1.6-1.5,2.2C698,384.8,697.4,385.4,696.6,385.9L696.6,385.9
		L696.6,385.9z"/>
	<path class="st14" d="M712.9,384.4c0.7-0.6,1.3-1.2,1.8-1.9c0.5-0.7,1-1.4,1.4-2.2c0.2-0.4,0.3-0.8,0.5-1.2
		c0.1-0.4,0.2-0.8,0.3-1.3l0-0.3l0-0.3c0-0.2,0-0.4,0-0.7c0-0.2,0-0.4,0-0.7c0-0.2-0.1-0.4-0.1-0.6c0-0.2-0.1-0.4-0.1-0.6
		c-0.1-0.2-0.1-0.4-0.2-0.6l-0.2-0.6l-0.3-0.6l-0.3-0.6c-0.1-0.2-0.2-0.4-0.4-0.5c-0.3-0.4-0.5-0.7-0.8-1.1c-0.3-0.4-0.6-0.7-0.8-1
		c-0.3-0.3-0.6-0.7-0.9-1l-0.9-0.9l-1-0.9l0,0l0,0c-0.4-0.4-0.8-0.8-1.1-1.2c-0.3-0.4-0.7-0.9-1-1.3c-0.6-0.9-1.1-2-1.3-3.1
		c-0.1-0.6-0.1-1.2-0.1-1.7c0.1-0.6,0.2-1.2,0.5-1.7c0.3-0.5,0.6-1,1-1.5c0.4-0.4,0.8-0.8,1.3-1.1c0.2-0.2,0.5-0.3,0.7-0.5l0.7-0.4
		c0.5-0.3,0.9-0.6,1.3-0.9c0.9-0.6,1.8-1.2,2.6-1.9c0.8-0.7,1.6-1.3,2.3-2.1c0.4-0.4,0.7-0.8,1-1.2c0.3-0.4,0.5-0.9,0.5-1.5l0.1,0
		c0.1,0.6-0.1,1.1-0.3,1.6c-0.2,0.5-0.5,1-0.9,1.4c-0.7,0.9-1.4,1.6-2.2,2.4c-0.8,0.7-1.7,1.4-2.5,2c-0.4,0.3-0.9,0.6-1.3,0.9
		l-0.7,0.4c-0.2,0.1-0.4,0.3-0.6,0.4c-0.4,0.3-0.8,0.6-1.1,1c-0.3,0.4-0.6,0.8-0.8,1.2c-0.2,0.4-0.3,0.9-0.4,1.4
		c-0.1,0.5-0.1,1,0,1.5c0.2,1,0.6,2,1.1,2.8c0.3,0.4,0.6,0.9,0.9,1.3c0.3,0.4,0.7,0.8,1,1.2l0,0l1,0.9l0.9,1c0.3,0.3,0.6,0.7,0.9,1
		c0.3,0.4,0.6,0.7,0.8,1.1c0.3,0.4,0.5,0.7,0.8,1.1c0.1,0.2,0.2,0.4,0.4,0.6l0.3,0.6l0.3,0.6l0.2,0.6c0.1,0.2,0.1,0.4,0.2,0.7
		c0,0.2,0.1,0.5,0.1,0.7c0,0.2,0.1,0.5,0.1,0.7c0,0.2,0,0.5,0,0.7c0,0.2,0,0.5,0,0.7l0,0.3l-0.1,0.3c-0.1,0.5-0.2,0.9-0.3,1.3
		c-0.2,0.4-0.3,0.8-0.5,1.2c-0.4,0.8-0.9,1.6-1.5,2.2C714.3,383.3,713.6,384,712.9,384.4L712.9,384.4L712.9,384.4z"/>
	<path class="st14" d="M721.2,399.9c0.4-0.4,0.7-0.8,1-1.2c0.3-0.4,0.6-0.9,0.9-1.3c0.6-0.9,1-1.9,1.4-2.9c0.2-0.5,0.3-1,0.4-1.5
		c0.1-0.5,0.2-1,0.3-1.6c0-0.3,0.1-0.5,0.1-0.8c0-0.3,0-0.5,0-0.8c0-0.5,0-1.1-0.1-1.6c-0.1-0.5-0.2-1.1-0.3-1.6
		c-0.1-0.5-0.3-1-0.5-1.5c-0.1-0.3-0.2-0.5-0.3-0.7l-0.2-0.4c0-0.1-0.1-0.2-0.2-0.4c-0.2-0.5-0.5-0.9-0.8-1.4l-0.4-0.7l-0.4-0.7
		c-0.3-0.5-0.6-0.9-0.9-1.3c-0.3-0.4-0.7-0.8-1-1.3c-0.3-0.4-0.7-0.8-1.1-1.2l0,0c-0.4-0.5-0.8-1.1-1.1-1.6c-0.3-0.5-0.7-1.1-1-1.7
		c-0.3-0.6-0.5-1.2-0.8-1.8c-0.2-0.6-0.4-1.3-0.5-1.9c-0.1-0.7-0.2-1.3-0.1-2c0-0.7,0.1-1.3,0.3-2c0.2-0.6,0.5-1.3,0.8-1.9
		c0.2-0.3,0.4-0.6,0.6-0.8l0.3-0.4c0.1-0.1,0.2-0.3,0.3-0.4c0.2-0.2,0.5-0.5,0.7-0.7l0.4-0.3l0.4-0.3c0.5-0.4,1-0.8,1.5-1.2
		c0.5-0.4,1-0.8,1.4-1.3c0.5-0.4,0.9-0.9,1.4-1.3c0.9-0.9,1.7-1.8,2.4-2.9c0.4-0.5,0.7-1.1,0.9-1.6c0.2-0.6,0.4-1.2,0.5-1.8l0.1,0
		c0.1,0.6-0.1,1.3-0.3,1.9c-0.2,0.6-0.5,1.2-0.8,1.8c-0.7,1.1-1.4,2.1-2.3,3.1c-0.4,0.5-0.9,1-1.3,1.4c-0.4,0.5-0.9,0.9-1.4,1.3
		c-0.5,0.4-1,0.9-1.4,1.3l-0.4,0.3l-0.3,0.3c-0.2,0.2-0.4,0.4-0.7,0.6c-0.1,0.1-0.2,0.2-0.3,0.3l-0.3,0.3c-0.2,0.2-0.4,0.5-0.5,0.8
		c-0.3,0.5-0.5,1.1-0.7,1.6c-0.2,0.6-0.3,1.2-0.3,1.8c0,0.6,0,1.2,0.1,1.8c0.1,0.6,0.2,1.2,0.4,1.8c0.2,0.6,0.4,1.2,0.7,1.7
		c0.3,0.6,0.5,1.1,0.9,1.7c0.3,0.5,0.7,1.1,1,1.5l0,0c0.4,0.4,0.7,0.8,1.1,1.3c0.3,0.4,0.7,0.9,1,1.3c0.3,0.5,0.6,0.9,0.9,1.4
		l0.4,0.7l0.4,0.7c0.3,0.5,0.5,1,0.8,1.5c0.1,0.1,0.1,0.2,0.2,0.4l0.2,0.4c0.1,0.3,0.2,0.5,0.3,0.8c0.2,0.5,0.3,1.1,0.5,1.6
		c0.1,0.5,0.2,1.1,0.3,1.6c0.1,0.5,0.1,1.1,0.1,1.6c0,0.3,0,0.6,0,0.8c0,0.3,0,0.5-0.1,0.8c-0.1,0.5-0.2,1.1-0.3,1.6
		c-0.1,0.5-0.3,1.1-0.5,1.6c-0.4,1-0.9,2-1.5,2.9c-0.3,0.5-0.6,0.9-0.9,1.3C722.1,399.2,721.7,399.6,721.2,399.9L721.2,399.9
		L721.2,399.9z"/>
	<path class="st14" d="M739.2,397.1c-0.4-0.4-0.7-0.8-1.1-1.2c-0.3-0.4-0.7-0.9-0.9-1.3c-0.6-0.9-1.1-1.9-1.5-2.9
		c-0.2-0.5-0.4-1-0.5-1.6c-0.1-0.5-0.2-1.1-0.3-1.6c0-0.3-0.1-0.5-0.1-0.8c0-0.3,0-0.6,0-0.8c0-0.5,0-1.1,0.1-1.7
		c0.1-0.5,0.1-1.1,0.3-1.6c0.1-0.5,0.3-1.1,0.4-1.6c0.1-0.3,0.2-0.5,0.3-0.8l0.2-0.4c0.1-0.1,0.1-0.3,0.2-0.4c0.2-0.5,0.5-1,0.8-1.5
		l0.4-0.7l0.4-0.7c0.3-0.5,0.6-0.9,0.9-1.4c0.3-0.5,0.7-0.9,1-1.3c0.3-0.4,0.7-0.8,1.1-1.3l0,0c0.4-0.5,0.7-1,1-1.5
		c0.3-0.5,0.6-1.1,0.9-1.6c0.3-0.6,0.5-1.1,0.7-1.7c0.2-0.6,0.3-1.2,0.4-1.8c0.1-0.6,0.1-1.2,0.1-1.8c0-0.6-0.1-1.2-0.3-1.8
		c-0.2-0.6-0.4-1.1-0.7-1.6c-0.1-0.3-0.3-0.5-0.5-0.7l-0.3-0.4c-0.1-0.1-0.2-0.2-0.3-0.3c-0.2-0.2-0.4-0.4-0.7-0.6l-0.3-0.3
		l-0.4-0.3c-0.5-0.4-1-0.8-1.4-1.3c-0.5-0.4-0.9-0.9-1.4-1.3c-0.4-0.5-0.9-0.9-1.3-1.4c-0.8-1-1.6-2-2.3-3.1
		c-0.3-0.6-0.6-1.2-0.8-1.8c-0.2-0.6-0.3-1.3-0.3-1.9l0.1,0c0,0.6,0.2,1.2,0.5,1.8c0.3,0.6,0.6,1.1,0.9,1.6c0.7,1,1.5,2,2.4,2.9
		c0.4,0.5,0.9,0.9,1.3,1.3c0.5,0.4,0.9,0.8,1.4,1.3c0.5,0.4,1,0.8,1.5,1.2l0.4,0.3l0.4,0.3c0.3,0.2,0.5,0.5,0.7,0.7
		c0.1,0.1,0.2,0.2,0.3,0.4l0.3,0.4c0.2,0.3,0.4,0.5,0.6,0.8c0.4,0.6,0.6,1.2,0.8,1.9c0.2,0.7,0.3,1.3,0.3,2c0,0.7,0,1.3-0.1,2
		c-0.1,0.7-0.3,1.3-0.5,1.9c-0.2,0.6-0.5,1.2-0.8,1.8c-0.3,0.6-0.6,1.2-1,1.7c-0.3,0.6-0.7,1.1-1.1,1.6l0,0
		c-0.4,0.4-0.7,0.8-1.1,1.2c-0.3,0.4-0.7,0.8-1,1.3c-0.3,0.4-0.6,0.9-0.9,1.3l-0.4,0.7l-0.4,0.7c-0.3,0.5-0.5,0.9-0.8,1.4
		c-0.1,0.1-0.1,0.3-0.2,0.4l-0.2,0.4c-0.1,0.2-0.2,0.5-0.3,0.7c-0.2,0.5-0.3,1-0.5,1.5c-0.1,0.5-0.2,1-0.3,1.6
		c-0.1,0.5-0.1,1.1-0.1,1.6c0,0.3,0,0.5,0,0.8c0,0.3,0,0.5,0.1,0.8c0.1,0.5,0.2,1.1,0.3,1.6c0.1,0.5,0.3,1,0.4,1.5
		c0.4,1,0.8,2,1.4,2.9c0.3,0.5,0.6,0.9,0.9,1.3C738.6,396.2,738.9,396.6,739.2,397.1L739.2,397.1L739.2,397.1z"/>
	<path class="st14" d="M705.7,394.6c-0.4-0.4-0.7-0.8-1.1-1.2c-0.3-0.4-0.7-0.9-0.9-1.3c-0.6-0.9-1.1-1.9-1.5-2.9
		c-0.2-0.5-0.4-1-0.5-1.6c-0.1-0.5-0.2-1.1-0.3-1.6c0-0.3-0.1-0.5-0.1-0.8c0-0.3,0-0.5,0-0.8c0-0.6,0-1.1,0.1-1.6
		c0.1-0.5,0.1-1.1,0.3-1.6c0.1-0.5,0.3-1.1,0.5-1.6c0.1-0.3,0.2-0.5,0.3-0.8l0.2-0.4c0.1-0.1,0.1-0.3,0.2-0.4c0.2-0.5,0.5-1,0.8-1.5
		l0.4-0.7l0.4-0.7c0.3-0.5,0.6-0.9,0.9-1.4c0.3-0.5,0.7-0.9,1-1.3c0.3-0.4,0.7-0.8,1.1-1.3l0,0c0.4-0.5,0.7-1,1-1.5
		c0.3-0.5,0.6-1.1,0.9-1.7c0.3-0.6,0.5-1.1,0.7-1.7c0.2-0.6,0.3-1.2,0.4-1.8c0.1-0.6,0.1-1.2,0.1-1.8c0-0.6-0.1-1.2-0.3-1.8
		c-0.2-0.6-0.4-1.1-0.7-1.6c-0.1-0.3-0.3-0.5-0.5-0.8l-0.3-0.4c-0.1-0.1-0.2-0.2-0.3-0.3c-0.2-0.2-0.4-0.4-0.7-0.6l-0.3-0.3
		l-0.4-0.3c-0.5-0.4-1-0.8-1.5-1.3c-0.5-0.4-0.9-0.9-1.4-1.4c-0.5-0.5-0.9-0.9-1.3-1.4c-0.8-1-1.6-2-2.3-3.1
		c-0.3-0.6-0.6-1.2-0.8-1.8c-0.2-0.6-0.3-1.3-0.3-1.9l0.1,0c0,0.6,0.2,1.2,0.5,1.8c0.2,0.6,0.6,1.1,0.9,1.6c0.7,1,1.5,2,2.4,2.9
		c0.4,0.4,0.9,0.9,1.4,1.3c0.5,0.4,0.9,0.8,1.4,1.3c0.5,0.4,1,0.8,1.5,1.2l0.4,0.3l0.4,0.3c0.3,0.2,0.5,0.4,0.7,0.7
		c0.1,0.1,0.2,0.2,0.3,0.4l0.3,0.4c0.2,0.3,0.4,0.5,0.6,0.8c0.4,0.6,0.6,1.2,0.8,1.9c0.2,0.7,0.3,1.3,0.3,2c0,0.7,0,1.3-0.1,2
		c-0.1,0.7-0.3,1.3-0.5,1.9c-0.2,0.6-0.5,1.2-0.8,1.8c-0.3,0.6-0.6,1.2-1,1.7c-0.3,0.6-0.7,1.1-1.1,1.6l0,0
		c-0.4,0.4-0.7,0.8-1.1,1.2c-0.3,0.4-0.7,0.8-1,1.3c-0.3,0.4-0.6,0.9-0.9,1.3l-0.4,0.7l-0.4,0.7c-0.3,0.5-0.5,0.9-0.8,1.4
		c-0.1,0.1-0.1,0.2-0.2,0.4l-0.2,0.4c-0.1,0.2-0.2,0.5-0.3,0.7c-0.2,0.5-0.3,1-0.5,1.5c-0.1,0.5-0.2,1-0.3,1.6
		c-0.1,0.5-0.1,1.1-0.1,1.6c0,0.3,0,0.5,0,0.8c0,0.3,0,0.5,0.1,0.8c0.1,0.5,0.2,1.1,0.3,1.6c0.1,0.5,0.3,1,0.5,1.5
		c0.4,1,0.8,2,1.4,2.9c0.3,0.5,0.6,0.9,0.9,1.3C705,393.7,705.4,394.1,705.7,394.6L705.7,394.6L705.7,394.6z"/>
	<path class="st14" d="M725.6,409.3c0,0-0.7-0.8-1.6-2.4c-0.4-0.8-1-1.8-1.4-3c-0.5-1.2-0.9-2.6-1.1-4.1c-0.1-0.8-0.2-1.6-0.3-2.4
		c0-0.8,0-1.7,0-2.6c0.1-0.9,0.2-1.8,0.4-2.7c0.2-0.9,0.5-1.8,0.8-2.8c0.7-1.8,1.6-3.6,2.6-5.4c0.5-0.9,1-1.8,1.7-2.6l0.2-0.3
		l0.1-0.2l0.1-0.1c0,0,0,0,0,0l0,0l0,0c0.1-0.2,0.3-0.4,0.4-0.6c0.3-0.4,0.5-0.9,0.7-1.4c0.9-1.8,1.5-3.8,1.8-5.7
		c0.3-2,0.2-3.9-0.4-5.7c-0.3-0.9-0.7-1.7-1.2-2.4c-0.2-0.4-0.5-0.7-0.8-1.1c-0.2-0.2-0.3-0.3-0.4-0.5l-0.1-0.1l0-0.1L727,363
		l-0.2-0.2c-1.3-1.3-2.4-2.6-3.3-3.8c-1-1.2-1.8-2.4-2.4-3.5c-0.6-1.1-1.1-2.1-1.4-3c-0.3-0.9-0.4-1.6-0.4-2.1c0-0.2,0-0.4,0-0.6
		c0-0.1,0-0.2,0-0.2l0.1,0c0,0,0,0.1,0,0.2c0,0.1,0,0.3,0.1,0.5c0.1,0.5,0.2,1.2,0.6,2c0.4,0.8,0.9,1.8,1.5,2.8
		c0.7,1,1.5,2.2,2.5,3.3c1,1.2,2.1,2.4,3.4,3.6l0.2,0.2l0.1,0.1c0,0,0,0,0.1,0.1l0.1,0.1c0.2,0.2,0.3,0.3,0.5,0.5
		c0.3,0.4,0.6,0.7,0.9,1.1c0.5,0.8,1,1.7,1.3,2.7c0.6,1.9,0.7,4.1,0.4,6.1c-0.3,2.1-1.1,4.1-2,5.9c-0.2,0.5-0.5,0.9-0.8,1.4
		c-0.1,0.2-0.3,0.4-0.4,0.7l-0.1,0.1l-0.1,0.1l-0.1,0.2l-0.2,0.3c-0.6,0.8-1.2,1.7-1.7,2.5c-1,1.7-1.9,3.5-2.6,5.3
		c-0.7,1.8-1.1,3.6-1.3,5.4c-0.1,0.9-0.1,1.7-0.1,2.6c0,0.8,0.1,1.6,0.2,2.4c0.2,1.5,0.6,2.9,1,4.1c0.4,1.2,0.9,2.2,1.3,3
		c0.4,0.8,0.8,1.4,1.1,1.8C725.6,409,725.7,409.2,725.6,409.3L725.6,409.3L725.6,409.3z"/>
	<path class="st14" d="M711.4,407.7c0,0-0.7-0.8-1.6-2.4c-0.5-0.8-1-1.8-1.4-3c-0.5-1.2-0.9-2.6-1.1-4.1c-0.1-0.8-0.2-1.6-0.3-2.4
		c0-0.8,0-1.7,0-2.6c0.1-0.9,0.2-1.8,0.4-2.7c0.2-0.9,0.5-1.8,0.8-2.8c0.7-1.8,1.6-3.6,2.6-5.4c0.5-0.9,1.1-1.8,1.7-2.6l0.2-0.3
		l0.1-0.2l0.1-0.1c0,0,0,0,0,0l0,0l0,0c0.1-0.2,0.3-0.4,0.4-0.6c0.2-0.4,0.5-0.9,0.7-1.4c0.9-1.8,1.5-3.8,1.8-5.7
		c0.3-2,0.2-3.9-0.4-5.7c-0.3-0.9-0.7-1.7-1.2-2.4c-0.2-0.4-0.5-0.7-0.8-1.1c-0.2-0.2-0.3-0.3-0.4-0.5l-0.1-0.1l0-0.1l-0.1-0.1
		l-0.2-0.2c-1.3-1.3-2.4-2.6-3.3-3.8c-1-1.2-1.8-2.4-2.4-3.5c-0.6-1.1-1.1-2.1-1.4-3c-0.3-0.9-0.4-1.6-0.4-2.1c0-0.2,0-0.4,0-0.6
		c0-0.1,0-0.2,0-0.2l0.1,0c0,0,0,0.1,0,0.2c0,0.1,0,0.3,0.1,0.5c0.1,0.5,0.2,1.2,0.6,2c0.3,0.8,0.9,1.8,1.5,2.8
		c0.7,1,1.5,2.2,2.5,3.3c1,1.2,2.1,2.4,3.4,3.6l0.2,0.2l0.1,0.1c0,0,0,0,0.1,0.1l0.1,0.1c0.2,0.2,0.3,0.3,0.5,0.5
		c0.3,0.4,0.6,0.7,0.9,1.1c0.5,0.8,1,1.7,1.3,2.7c0.6,1.9,0.7,4.1,0.4,6.1c-0.3,2.1-1.1,4.1-2,5.9c-0.2,0.5-0.5,0.9-0.8,1.4
		c-0.1,0.2-0.3,0.5-0.4,0.7l-0.1,0.1l-0.1,0.1l-0.1,0.2l-0.2,0.3c-0.6,0.8-1.2,1.7-1.7,2.5c-1,1.7-1.9,3.5-2.6,5.3
		c-0.7,1.8-1.1,3.6-1.3,5.3c-0.1,0.9-0.1,1.7-0.1,2.6c0,0.8,0.1,1.6,0.2,2.4c0.2,1.5,0.6,2.9,1,4.1c0.4,1.2,0.9,2.2,1.3,3
		c0.4,0.8,0.8,1.4,1.1,1.8C711.3,407.5,711.4,407.7,711.4,407.7L711.4,407.7L711.4,407.7z"/>
	<path class="st14" d="M701.3,397.1c0,0-0.7-0.8-1.6-2.4c-0.4-0.8-1-1.8-1.4-3c-0.5-1.2-0.9-2.6-1.1-4.1c-0.1-0.8-0.2-1.6-0.3-2.4
		c0-0.8,0-1.7,0-2.6c0.1-0.9,0.2-1.8,0.4-2.7c0.2-0.9,0.5-1.8,0.8-2.8c0.7-1.8,1.6-3.6,2.6-5.4c0.5-0.9,1-1.8,1.7-2.6l0.2-0.3
		l0.1-0.2l0.1-0.1c0,0,0,0,0,0l0,0l0,0c0.1-0.2,0.3-0.4,0.4-0.6c0.2-0.4,0.5-0.9,0.7-1.4c0.9-1.8,1.5-3.8,1.8-5.7
		c0.3-2,0.2-3.9-0.4-5.7c-0.3-0.9-0.7-1.7-1.2-2.4c-0.2-0.4-0.5-0.7-0.8-1.1c-0.1-0.2-0.3-0.3-0.4-0.5l-0.1-0.1l0-0.1l-0.1-0.1
		l-0.2-0.2c-1.3-1.3-2.4-2.6-3.3-3.8c-1-1.2-1.8-2.4-2.4-3.5c-0.6-1.1-1.1-2.1-1.4-3c-0.3-0.9-0.4-1.6-0.4-2.1c0-0.2,0-0.4,0-0.6
		c0-0.1,0-0.2,0-0.2l0.1,0c0,0,0,0.1,0,0.2c0,0.1,0,0.3,0.1,0.5c0.1,0.5,0.2,1.2,0.6,2c0.4,0.8,0.9,1.8,1.5,2.8
		c0.7,1,1.5,2.2,2.5,3.3c1,1.2,2.1,2.4,3.4,3.6l0.2,0.2l0.1,0.1c0,0,0,0,0.1,0.1l0.1,0.1c0.2,0.2,0.3,0.3,0.5,0.5
		c0.3,0.4,0.6,0.7,0.9,1.1c0.5,0.8,1,1.7,1.3,2.7c0.6,1.9,0.7,4.1,0.4,6.1c-0.4,2.1-1.1,4.1-2,5.9c-0.2,0.5-0.5,0.9-0.8,1.4
		c-0.1,0.2-0.3,0.4-0.4,0.7l-0.1,0.1l-0.1,0.1l-0.1,0.2l-0.2,0.3c-0.6,0.8-1.2,1.7-1.7,2.5c-1,1.7-1.9,3.5-2.6,5.3
		c-0.7,1.8-1.1,3.6-1.3,5.3c-0.1,0.9-0.1,1.7-0.1,2.6c0,0.8,0.1,1.6,0.2,2.4c0.2,1.5,0.6,2.9,1,4.1c0.4,1.2,0.9,2.2,1.3,3
		c0.4,0.8,0.8,1.4,1.1,1.8C701.2,396.8,701.3,397,701.3,397.1L701.3,397.1L701.3,397.1z"/>
	<path class="st15" d="M317.2,363.5c0,0-13.9,14-15.5,25.8c0,0,19.2-15.5,33.6-16.4L317.2,363.5L317.2,363.5z"/>
	<path class="st1" d="M271.8,349.6c0,0,29.7-16,78.2-16.8c0,0,16.1-19.9,30.8-23.9c0,0-22.4,27-1.8,29.9c0,0,53.8,9.1,57.6,10.8
		c0,0,22.3-24.1,43-25.1c0,0-23,21.9-23.1,29c0,0,0.7,17.3,10.6,24.8c0,0-24-6-30.3-17.3c0,0-27.2,3.3-31,3.5l5.4,4.3l-12.9,6.8
		l-8.9-5c0,0-21.7,3-36.5,1.6c0,0-14.6-2-4.6,26.4c0,0-18.8-8.5-20.6-27c0,0-27.8-1.2-37.1-7.1c0,0,13.4-7.9,21.3-9.1
		c0,0-23,1.9-24.4,4.4l-15.8-9.7"/>
	<path class="st16" d="M293.3,350.5c0-0.7-0.6-1.3-1.3-1.3c-0.7,0-1.3,0.6-1.3,1.3c0,0.7,0.6,1.3,1.3,1.3
		C292.7,351.8,293.3,351.2,293.3,350.5L293.3,350.5z"/>
	<path class="st17" d="M610.5,416.1c0,0,15.9-9.4,6.6-11.2c0,0-24.1-6.5-6.6-32.5l12.1,28.3c0,0,1.8-23.2-1-27.5c0,0,11.8,5,13,22.5
		c0,0,0,22.9-20.1,25.6L610.5,416.1L610.5,416.1z"/>
	<polygon class="st17" points="589.5,428 601.3,447.1 599.2,425.5 606.5,442.8 605.4,424.9 611.9,443.9 609.7,418.7 589.5,428 	"/>
	<path class="st17" d="M520.8,398.6c0,0-11.3-14.7-2-12.9c0,0,24.8,3,18.3-27.7l-21.8,21.7c0,0,7.1-22.1,11.3-25.1
		c0,0-12.8,0.2-20.5,16c0,0-8.6,21.3,9.1,31.2L520.8,398.6L520.8,398.6z"/>
	<polygon class="st17" points="535.8,417.6 517.7,430.9 527.7,411.6 514.4,424.9 522.2,408.8 509.1,423.9 520.6,401.3 535.8,417.6 	
		"/>
	<path class="st18" d="M561.1,430.7c-46.2-10.7-49.5-31.7-49.5-31.7c30.2-15.6,58.1-12.1,58.1-12.1s27.1,7.2,49.3,33
		C618.9,419.9,608.8,438.9,561.1,430.7L561.1,430.7z"/>
	<path class="st3" d="M592.3,387.4c1.2-6-2.8-11.9-8.8-13.1c-6-1.2-11.9,2.8-13.1,8.8c-1.2,6,2.8,11.9,8.8,13.1
		C585.2,397.3,591.1,393.4,592.3,387.4L592.3,387.4z"/>
	<path class="st8" d="M583.5,387.9c0.5-2.8-1.3-5.4-4-5.9c-2.8-0.5-5.4,1.3-5.9,4c-0.5,2.7,1.3,5.4,4,5.9
		C580.4,392.4,583,390.6,583.5,387.9L583.5,387.9z"/>
	<path class="st3" d="M548.5,378.8c1.2-6,7-10,13.1-8.8c6,1.2,10,7,8.8,13.1c-1.2,6-7,10-13.1,8.8
		C551.2,390.7,547.3,384.9,548.5,378.8L548.5,378.8z"/>
	<path class="st8" d="M556.3,382.6c0.5-2.8,3.2-4.5,5.9-4c2.7,0.5,4.5,3.2,4,5.9c-0.5,2.7-3.2,4.5-5.9,4
		C557.6,388,555.8,385.3,556.3,382.6L556.3,382.6z"/>
	<path class="st17" d="M539.4,406.5c0,0,0.2,0.1,0.5,0.4c0.3,0.2,0.8,0.6,1.5,1c1.3,0.8,3,2,5.2,3.2c1.1,0.6,2.3,1.3,3.5,1.9
		c1.3,0.6,2.6,1.3,4,1.9c0.3,0.2,0.7,0.3,1.1,0.4c0.4,0.1,0.7,0.3,1.1,0.4c0.7,0.3,1.5,0.5,2.2,0.8c0.4,0.1,0.8,0.2,1.1,0.4
		c0.4,0.1,0.8,0.2,1.2,0.3l0.6,0.2l0.6,0.1l1.2,0.3c0.8,0.2,1.6,0.3,2.4,0.4c0.8,0.1,1.6,0.3,2.3,0.3c0.8,0.1,1.6,0.2,2.3,0.2
		c0.4,0,0.8,0,1.2,0.1c0.4,0,0.8,0,1.1,0c0.4,0,0.8,0,1.1,0c0.4,0,0.7,0,1.1-0.1c0.4,0,0.7,0,1.1,0c0.4,0,0.7-0.1,1.1-0.1
		c1.4-0.1,2.7-0.3,4-0.5c0.6-0.1,1.2-0.2,1.8-0.3c0.3-0.1,0.6-0.1,0.8-0.2c0.3-0.1,0.5-0.1,0.8-0.2c1-0.2,1.9-0.4,2.6-0.6
		c0.7-0.2,1.3-0.3,1.7-0.4c0.4-0.1,0.6-0.1,0.6-0.1s-0.2,0.1-0.5,0.4c-0.3,0.3-0.8,0.6-1.4,1.1c-0.2,0.1-0.3,0.2-0.5,0.4
		c-0.2,0.1-0.4,0.2-0.6,0.4c-0.4,0.3-0.8,0.5-1.3,0.8c-0.2,0.1-0.5,0.3-0.7,0.4c-0.3,0.1-0.5,0.3-0.8,0.4c-0.5,0.3-1.1,0.5-1.7,0.8
		c-0.6,0.2-1.3,0.5-2,0.8c-0.7,0.3-1.4,0.4-2.1,0.7c-0.4,0.1-0.8,0.2-1.1,0.3c-0.4,0.1-0.8,0.2-1.2,0.2c-0.4,0.1-0.8,0.2-1.2,0.2
		c-0.4,0.1-0.8,0.1-1.3,0.2c-0.4,0.1-0.9,0.1-1.3,0.1c-0.4,0-0.9,0-1.3,0.1c-0.4,0-0.9,0.1-1.3,0c-0.4,0-0.9,0-1.3-0.1l-0.7,0
		l-0.7-0.1c-0.5,0-0.9-0.1-1.4-0.1c-0.9-0.1-1.8-0.3-2.7-0.5c-1.8-0.4-3.5-0.9-5.2-1.6c-1.7-0.6-3.2-1.4-4.7-2.2
		c-1.5-0.8-2.8-1.7-4-2.7c-1.2-0.9-2.3-1.9-3.3-2.8c-1.9-1.8-3.3-3.6-4.2-4.8C539.8,407.3,539.4,406.5,539.4,406.5L539.4,406.5z"/>
	<path class="st16" d="M482.4,169c-68.2,0-237,10.4-333,106.3l-0.2,0.2c-4,3.8-96.3,95.1-14.4,204.5l0.3,0.4
		c1.5,2.1,39.4,53.5,147.1,53.5c0,0,0,0,0,0c6.2,0,12.6-0.2,18.9-0.5l0.8,0c0.8,0,80.8-1,134.8-58.4c4.1-4.3,40.8-41,74.9-39.8
		c0.5,0,1.1,0,1.6,0c33.7,0,69.2,35.6,73.1,39.7c54.1,57.6,134.1,58.5,134.9,58.5l0.7,0c6.4,0.3,12.8,0.5,19,0.5
		c107.7,0,145.6-51.4,147.2-53.6c77.8-108.6-10.7-201.3-14.5-205.2C777.9,179.4,609,169,540.9,169c-17.6,0-28.2,0.7-28.3,0.7
		l-15.5-0.5C493,169.1,488.1,169,482.4,169L482.4,169z M282.2,562.2c-120.6,0-166.3-60.1-170.1-65.4c-50.5-67.6-43-129.9-27.8-170.2
		c15.9-42.1,42.9-68.9,45.3-71.2C233,152.1,410.7,140.9,482.4,140.9c9.7,0,17.3,0.2,22,0.4c1.9,0.1,4.1,0.2,6.3,0.4
		c0.7,0,11.8-0.8,30.2-0.8c71.7,0,249.5,11.2,352.9,114.6c1.2,1.2,27.9,28.6,43.4,71.8c14.6,40.4,21.9,102.6-26,169.4
		c-1.7,2.5-46.6,65.5-170.1,65.5c-6.6,0-13.3-0.2-20.1-0.5c-7.6-0.1-93.8-2.4-154.9-67.2c-11.6-11.9-36.3-31-52.8-31
		c-0.3,0-0.6,0-1,0l-0.7,0l-0.7,0c-0.3,0-0.6,0-1,0c-18.6,0-45.1,23.1-52.9,31.1c-60.9,64.7-147.1,67-154.7,67.1
		C295.6,562,288.8,562.2,282.2,562.2L282.2,562.2z"/>
	<polygon class="st16" points="920.9,678.3 823.3,678.3 823.3,647.5 920.9,647.5 920.9,678.3 	"/>
	<path class="st16" d="M927,740.1c-39.5,0-71.5-32.1-71.5-71.5h33.3c0,21.1,17.2,38.3,38.3,38.3c21.1,0,38.3-17.2,38.3-38.3V417.3
		h33.3v251.2C998.6,708,966.5,740.1,927,740.1L927,740.1z"/>
	<path class="st3" d="M1027.4,337.4c0-11.4-9.2-20.7-20.7-20.7c-11.4,0-20.7,9.3-20.7,20.7c0,11.4,9.3,20.7,20.7,20.7
		C1018.2,358.1,1027.4,348.8,1027.4,337.4L1027.4,337.4z"/>
	<path class="st3" d="M974.8,284.7c0-11.4-9.3-20.7-20.7-20.7s-20.7,9.3-20.7,20.7c0,11.4,9.3,20.7,20.7,20.7
		S974.8,296.2,974.8,284.7L974.8,284.7z"/>
	<path class="st3" d="M1016.2,167.6c0-11.4-9.3-20.7-20.7-20.7c-11.4,0-20.7,9.3-20.7,20.7c0,11.4,9.3,20.7,20.7,20.7
		C1006.9,188.2,1016.2,179,1016.2,167.6L1016.2,167.6z"/>
	<path class="st3" d="M998.6,219c0-8-6.5-14.5-14.5-14.5c-8,0-14.5,6.5-14.5,14.5c0,8,6.5,14.5,14.5,14.5
		C992.1,233.5,998.6,227,998.6,219L998.6,219z"/>
	<path class="st3" d="M1021.2,275.8c0-8-6.5-14.5-14.5-14.5c-8,0-14.5,6.5-14.5,14.5c0,8,6.5,14.5,14.5,14.5
		C1014.8,290.2,1021.2,283.8,1021.2,275.8L1021.2,275.8z"/>
</g>
</svg>
